<?xml version="1.0" encoding="utf-8"?><svg viewBox="0 0 80 714" xmlns="http://www.w3.org/2000/svg" xmlns:xlink="http://www.w3.org/1999/xlink"><style>:root>svg{display:none}:root>svg:target{display:block}</style><svg fill="none" viewBox="0 0 13 16" id="address" xmlns="http://www.w3.org/2000/svg"><path fill-rule="evenodd" clip-rule="evenodd" d="M11.8 6.5c0 2.33-1.37 4.42-2.91 6.01a17.54 17.54 0 01-2.39 2.05 16.93 16.93 0 01-2.39-2.05C2.57 10.91 1.2 8.83 1.2 6.5a5.3 5.3 0 1110.6 0zm1.2 0c0 5.59-6.5 9.5-6.5 9.5S0 12.09 0 6.5a6.5 6.5 0 0113 0zm-4.2 0a2.3 2.3 0 11-4.6 0 2.3 2.3 0 014.6 0zm1.2 0a3.5 3.5 0 11-7 0 3.5 3.5 0 017 0z" fill="#7859CF"/></svg><svg fill="none" viewBox="0 0 80 714" id="arrow" xmlns="http://www.w3.org/2000/svg"><path fill-rule="evenodd" clip-rule="evenodd" d="M43.72 347l1.28 1.32-8.43 8.68 8.43 8.68-1.28 1.32L34 357l9.72-10z" fill="#7859CF"/></svg><svg fill="none" viewBox="0 0 16 16" id="basket" xmlns="http://www.w3.org/2000/svg"><path fill-rule="evenodd" clip-rule="evenodd" d="M5.66 3.88l.23 2.79h4.22l.23-2.8a2.35 2.35 0 10-4.68 0zm5.78 2.79l.23-2.68a3.68 3.68 0 10-7.34 0l.23 2.68H0L.19 8l.82 5.71A2.67 2.67 0 003.65 16h8.7c1.33 0 2.46-.98 2.64-2.29L15.81 8 16 6.67h-4.55zM11.34 8h-.06l-.22 2.67h3.02L14.46 8h-3.13zm-1.4 0H6.06l.22 2.67h3.44L9.94 8zM4.72 8H1.54l.38 2.67h3.02L4.72 8zm1.9 6.67L6.38 12H9.6l-.22 2.67H6.6zM10.94 12l-.23 2.67h1.63c.67 0 1.23-.5 1.32-1.15L13.9 12h-2.94zm-5.9 0l.23 2.67H3.65c-.67 0-1.23-.5-1.32-1.15L2.1 12h2.94z" fill="#333"/></svg><svg fill="none" viewBox="0 0 20 20" id="classmates" xmlns="http://www.w3.org/2000/svg"><path fill-rule="evenodd" clip-rule="evenodd" d="M1.4 1.4C0 2.81 0 5.07 0 9.6v.91c0 4.46 0 6.7 1.4 8.09C2.81 20 5.07 20 9.6 20h.91c4.46 0 6.7 0 8.09-1.4 1.4-1.41 1.4-3.67 1.4-8.2v-.91c0-4.46 0-6.7-1.4-8.09C17.19 0 14.93 0 10.4 0h-.91C5.03 0 2.79 0 1.4 1.4zm8.62 8.8A3.03 3.03 0 1010 4.13a3.03 3.03 0 000 6.07zm0-4.28a1.25 1.25 0 010 2.5c-.69 0-1.25-.56-1.25-1.25a1.23 1.23 0 011.25-1.25zm1.21 6.76a5.73 5.73 0 001.76-.72.88.88 0 00.28-1.24.88.88 0 00-1.24-.27 3.85 3.85 0 01-4.08 0 .9.9 0 00-1.23.27.9.9 0 00.3 1.22 5.8 5.8 0 001.77.72L7.1 14.35a.89.89 0 000 1.25c.18.18.4.25.63.25.24 0 .46-.09.64-.25l1.67-1.67 1.67 1.67a.89.89 0 001.25-1.25l-1.73-1.67z" fill="#7859CF"/></svg><svg fill="none" viewBox="0 0 20 20" id="classmates-grey" xmlns="http://www.w3.org/2000/svg"><path fill-rule="evenodd" clip-rule="evenodd" d="M1.4 1.4C0 2.81 0 5.07 0 9.6v.91c0 4.46 0 6.7 1.4 8.09C2.81 20 5.07 20 9.6 20h.91c4.46 0 6.7 0 8.09-1.4 1.4-1.41 1.4-3.67 1.4-8.2v-.91c0-4.46 0-6.7-1.4-8.09C17.19 0 14.93 0 10.4 0h-.91C5.03 0 2.79 0 1.4 1.4zm8.62 8.8A3.03 3.03 0 1010 4.13a3.03 3.03 0 000 6.07zm0-4.28a1.25 1.25 0 010 2.5c-.69 0-1.25-.56-1.25-1.25a1.23 1.23 0 011.25-1.25zm1.21 6.76a5.73 5.73 0 001.76-.72.88.88 0 00.28-1.24.88.88 0 00-1.24-.27 3.85 3.85 0 01-4.08 0 .9.9 0 00-1.23.27.9.9 0 00.3 1.22 5.8 5.8 0 001.77.72L7.1 14.35a.89.89 0 000 1.25c.18.18.4.25.63.25.24 0 .46-.09.64-.25l1.67-1.67 1.67 1.67a.89.89 0 001.25-1.25l-1.73-1.67z" fill="#BDBDBD"/></svg><svg fill="none" viewBox="0 0 52 56" id="energy" xmlns="http://www.w3.org/2000/svg"><path fill-rule="evenodd" clip-rule="evenodd" d="M24.97 35.2L43.13 4 9 30.68l15.97 4.52zm6.06-10.4L12.87 56 47 29.32 31.03 24.8z" fill="#F0EBFF"/><path fill-rule="evenodd" clip-rule="evenodd" d="M39.13 0L5 26.68l15.97 4.52L8.87 52 43 25.32 27.03 20.8 39.13 0zm1.7 25.75l-15.32-4.34L35.66 4 7.16 26.25l15.33 4.34L12.34 48l28.5-22.26z" fill="#7859CF"/></svg><svg fill="none" viewBox="0 0 52 56" id="fit" xmlns="http://www.w3.org/2000/svg"><path d="M4 4h48l-4 44-20 8-20-8L4 4z" fill="#F0EBFF"/><path fill-rule="evenodd" clip-rule="evenodd" d="M1 0H0l.1 1L4 44l20 8 20-8 3.9-43 .1-1H1zm.1 1l.36 4h45.08l.37-4H1.1zm40.8 5H6.1l.1 1.13-.5.05-.5.04L5.09 6H1.55l3.39 37.3L24 50.92l19.06-7.62L46.45 6h-3.54l-.1 1.22-.5-.04-.5-.05.1-1.13zM6.1 11.62l-.5.04.39 4.45.5-.05.5-.04-.4-4.45-.5.05zm.78 8.88l-.5.05.4 4.44.5-.04.5-.05-.4-4.44-.5.04zm.8 8.89l-.5.04.4 4.45.5-.05.49-.04-.4-4.45-.5.05zm.79 8.88l-.5.05.2 2.22 1.98.8.18-.46.2-.46-1.42-.58-.15-1.61-.5.04zm5.82 4.23l-.19.46 3.96 1.62.2-.47.18-.46-3.96-1.61-.19.46zm7.92 3.23l-.19.46L24 47l1.98-.8-.19-.47-.19-.46-1.6.65-1.6-.65-.19.46zm7.54-1.62l.19.47 3.96-1.62-.2-.46-.18-.46-3.96 1.61.19.46zm7.92-3.23l.18.47 1.98-.81.2-2.22-.5-.05-.5-.04-.14 1.61-1.41.58.19.46zm2.26-7.05l.5.05.4-4.45-.5-.04-.5-.05-.4 4.45.5.04zm.8-8.88l.49.04.4-4.44-.5-.05-.5-.04-.4 4.44.5.05zm.78-8.89l.5.05.4-4.45-.5-.04-.5-.05-.4 4.45.5.04z" fill="#7859CF"/></svg><svg fill="none" viewBox="0 0 12 16" id="logo-html-colored" xmlns="http://www.w3.org/2000/svg"><path d="M11.22 5.75L5.97 2.5.78 5.75V1.41L6 .83l5.22.58v4.34zm0 .58l-2.1 1.3-3.14-1.97v.57L8.66 7.9l-.46.29-2.22-1.4v.58l1.75 1.1-.41.29H7.3l-1.33-.82v.58l.87.53-.89.56L.8 6.4l5.17-3.3 5.24 3.22zm0 5.44L6 15.04.78 11.77V7.03l5.2 3.25v.59L2.43 8.64v.57L6 11.47v.6L2.43 9.85v.57L6 12.67l3.6-2.27V7.96l1.62-1.01v4.82zM6 0L0 .66v11.58L6 16l6-3.76V.66L6 0z" fill="#7859CF"/></svg><svg fill="none" viewBox="0 0 12 16" id="logo-html-colored-dark" xmlns="http://www.w3.org/2000/svg"><path d="M11.22 5.75L5.97 2.5.78 5.75V1.41L6 .83l5.22.58v4.34zm0 .58l-2.1 1.3-3.14-1.97v.57L8.66 7.9l-.46.29-2.22-1.4v.58l1.75 1.1-.41.29H7.3l-1.33-.82v.58l.87.53-.89.56L.8 6.4l5.17-3.3 5.24 3.22zm0 5.44L6 15.04.78 11.77V7.03l5.2 3.25v.59L2.43 8.64v.57L6 11.47v.6L2.43 9.85v.57L6 12.67l3.6-2.27V7.96l1.62-1.01v4.82zM6 0L0 .66v11.58L6 16l6-3.76V.66L6 0z" fill="#593CAC"/></svg><svg fill="none" viewBox="0 0 12 16" id="logo-html-grey" xmlns="http://www.w3.org/2000/svg"><path d="M11.22 5.75L5.97 2.5.78 5.75V1.41L6 .83l5.22.58v4.34zm0 .58l-2.1 1.3-3.14-1.97v.57L8.66 7.9l-.46.29-2.22-1.4v.58l1.75 1.1-.41.29H7.3l-1.33-.82v.58l.87.53-.89.56L.8 6.4l5.17-3.3 5.24 3.22zm0 5.44L6 15.04.78 11.77V7.03l5.2 3.25v.59L2.43 8.64v.57L6 11.47v.6L2.43 9.85v.57L6 12.67l3.6-2.27V7.96l1.62-1.01v4.82zM6 0L0 .66v11.58L6 16l6-3.76V.66L6 0z" fill="#BDBDBD"/></svg><svg fill="none" viewBox="0 0 16 16" id="menu" xmlns="http://www.w3.org/2000/svg"><path fill-rule="evenodd" clip-rule="evenodd" d="M0 2h16v1.5H0V2zm0 5.25h16v1.5H0v-1.5zm16 5.25H0V14h16v-1.5z" fill="#333"/></svg><svg fill="none" viewBox="0 0 13 16" id="phone" xmlns="http://www.w3.org/2000/svg"><path fill-rule="evenodd" clip-rule="evenodd" d="M1.48 1.49A2.7 2.7 0 00.05 4.32L.4 6.09c.93 3.13 2.5 5.77 4.83 8.11l1.4 1.2c.86.72 2.17.8 3.24.2l2.23-1.25c.88-.49 1.17-1.53.63-2.26L10.8 9.5c-.52-.7-1.6-.82-2.37-.26l-1.38.99a5.23 5.23 0 01-2.17-3.67l1.56-.66c.9-.37 1.33-1.33.96-2.11L6.04.85C5.66.03 4.58-.25 3.7.25L1.48 1.48zm-.2 2.53c-.12-.6.2-1.22.78-1.55L4.3 1.23c.22-.13.5-.06.59.15L6.24 4.3c.1.2-.02.43-.24.53L3.57 5.86l.02.42a6.28 6.28 0 003.07 5.16l.36.22 2.13-1.53c.2-.14.46-.11.59.06l1.93 2.61c.14.19.07.45-.15.57l-2.23 1.25c-.59.33-1.3.28-1.77-.12l-1.4-1.19A20.91 20.91 0 011.64 5.8l-.36-1.77z" fill="#7859CF"/></svg><svg fill="none" viewBox="0 0 22 22" id="pinterest" xmlns="http://www.w3.org/2000/svg"><path d="M11 0a11 11 0 00-4 21.25c-.1-.87-.2-2.21.03-3.16l1.29-5.47s-.33-.66-.33-1.63c0-1.53.89-2.67 2-2.67.93 0 1.38.7 1.38 1.54 0 .95-.6 2.36-.9 3.67-.27 1.1.54 1.99 1.62 1.99 1.96 0 3.46-2.07 3.46-5.04 0-2.64-1.9-4.48-4.6-4.48A4.76 4.76 0 006 10.78c0 .94.36 1.96.82 2.5.09.12.1.21.07.32l-.3 1.25c-.05.2-.16.24-.37.15-1.38-.64-2.23-2.65-2.23-4.26 0-3.47 2.52-6.66 7.26-6.66 3.82 0 6.78 2.72 6.78 6.35 0 3.8-2.39 6.84-5.7 6.84-1.12 0-2.17-.58-2.52-1.26l-.69 2.62a12.3 12.3 0 01-1.37 2.88A11 11 0 1011 0z" fill="#7859CF"/></svg><svg fill="none" viewBox="0 0 22 22" id="pinterest-grey" xmlns="http://www.w3.org/2000/svg"><path d="M11 0a11 11 0 00-4 21.25c-.1-.87-.2-2.21.03-3.16l1.29-5.47s-.33-.66-.33-1.63c0-1.53.89-2.67 2-2.67.93 0 1.38.7 1.38 1.54 0 .95-.6 2.36-.9 3.67-.27 1.1.54 1.99 1.62 1.99 1.96 0 3.46-2.07 3.46-5.04 0-2.64-1.9-4.48-4.6-4.48A4.76 4.76 0 006 10.78c0 .94.36 1.96.82 2.5.09.12.1.21.07.32l-.3 1.25c-.05.2-.16.24-.37.15-1.38-.64-2.23-2.65-2.23-4.26 0-3.47 2.52-6.66 7.26-6.66 3.82 0 6.78 2.72 6.78 6.35 0 3.8-2.39 6.84-5.7 6.84-1.12 0-2.17-.58-2.52-1.26l-.69 2.62a12.3 12.3 0 01-1.37 2.88A11 11 0 1011 0z" fill="#BDBDBD"/></svg><svg fill="none" viewBox="0 0 52 56" id="speed" xmlns="http://www.w3.org/2000/svg"><path fill-rule="evenodd" clip-rule="evenodd" d="M24 4h8v3h-3v3.02c3.82.16 7.39 1.26 10.5 3.06 1.85-1.93 6.26.17 4.76 3.66l-.1-.1a23 23 0 11-32.43.1c-2.02-3.03 2.59-6.16 4.77-3.66 3.11-1.8 6.68-2.9 10.5-3.06V7h-3V4z" fill="#F0EBFF"/><path fill-rule="evenodd" clip-rule="evenodd" d="M27 1h-6v1h6V1zm-2 2h3V0h-8v3h3v3.02a22.87 22.87 0 00-9.6 2.57l-.15-.17c-1.53-1.76-3.85-1.44-5.3-.4a4.14 4.14 0 00-1.6 2.26c-.26.96-.1 2.02.56 3.01l.12.19a23 23 0 1033.99.05l.16-.4c.47-1.08.5-2.13.17-3.04-.32-.9-.95-1.6-1.68-2.06-1.41-.89-3.54-1.06-4.9.36l-.17.2A22.87 22.87 0 0025 6.01V3zm-1 4c-3.86 0-7.49 1-10.64 2.74l-.36.2a22 22 0 1022 0l-.36-.2A21.9 21.9 0 0024 7zM12.5 9.08a23.08 23.08 0 00-4.76 3.66 2.98 2.98 0 01-.44-.98c-.55-2.31 2.31-4.31 4.35-3.34.3.15.6.37.85.66zm23 0a23.08 23.08 0 014.76 3.66c.17-.4.26-.77.3-1.12.2-2.33-2.32-3.74-4.1-3.14-.36.12-.69.32-.96.6zM24 31a2 2 0 00.86-3.8l-.91-.2a2 2 0 00.05 4zm-.64-4.93l-1.34-4.94-.04-.14.05-.15 1.5-4.5.47-1.42.47 1.42 1.5 4.5.05.15-.04.14-1.34 4.94.37.1 7.55-13.42.88.5-7.55 13.42a3 3 0 11-2.53-.6zM23.02 21l.98 3.6.98-3.59-.98-2.93-.98 2.93z" fill="#7859CF"/></svg><svg fill="none" viewBox="0 0 16 16" id="user" xmlns="http://www.w3.org/2000/svg"><path fill-rule="evenodd" clip-rule="evenodd" d="M10.67 4a2.67 2.67 0 11-5.34 0 2.67 2.67 0 015.34 0zM12 4a4 4 0 11-8 0 4 4 0 018 0zm-8.8 8.31A7.55 7.55 0 018 10.67c1.84 0 3.56.6 4.8 1.64A4.83 4.83 0 0114.67 16H16c0-1.77-.84-3.46-2.34-4.71A8.88 8.88 0 008 9.33c-2.12 0-4.16.7-5.66 1.96A6.16 6.16 0 000 16h1.33c0-1.33.63-2.66 1.87-3.69z" fill="#333"/></svg><svg fill="none" viewBox="0 0 20 20" id="vk" xmlns="http://www.w3.org/2000/svg"><path fill-rule="evenodd" clip-rule="evenodd" d="M1.4 1.4C0 2.82 0 5.08 0 9.6v.8c0 4.53 0 6.79 1.4 8.2C2.82 20 5.08 20 9.6 20h.8c4.53 0 6.79 0 8.2-1.4 1.4-1.41 1.4-3.67 1.4-8.2v-.8c0-4.53 0-6.79-1.4-8.2C17.18 0 14.92 0 10.4 0h-.8C5.07 0 2.81 0 1.4 1.4zm1.98 4.68c.1 5.2 2.7 8.33 7.26 8.33h.26v-2.98a4.11 4.11 0 013.45 2.98h2.37a6.58 6.58 0 00-3.43-4.18 6.35 6.35 0 002.93-4.15h-2.15c-.47 1.65-1.85 3.15-3.17 3.3v-3.3H8.75v5.77c-1.33-.33-3.02-1.95-3.1-5.77H3.39z" fill="#7859CF"/></svg><svg fill="none" viewBox="0 0 20 20" id="vk-grey" xmlns="http://www.w3.org/2000/svg"><path fill-rule="evenodd" clip-rule="evenodd" d="M1.4 1.4C0 2.82 0 5.08 0 9.6v.8c0 4.53 0 6.79 1.4 8.2C2.82 20 5.08 20 9.6 20h.8c4.53 0 6.79 0 8.2-1.4 1.4-1.41 1.4-3.67 1.4-8.2v-.8c0-4.53 0-6.79-1.4-8.2C17.18 0 14.92 0 10.4 0h-.8C5.07 0 2.81 0 1.4 1.4zm1.98 4.68c.1 5.2 2.7 8.33 7.26 8.33h.26v-2.98a4.11 4.11 0 013.45 2.98h2.37a6.58 6.58 0 00-3.43-4.18 6.35 6.35 0 002.93-4.15h-2.15c-.47 1.65-1.85 3.15-3.17 3.3v-3.3H8.75v5.77c-1.33-.33-3.02-1.95-3.1-5.77H3.39z" fill="#BDBDBD"/></svg></svg>